<?xml version="1.0" standalone="no"?><!DOCTYPE svg PUBLIC "-//W3C//DTD SVG 1.1//EN" "http://www.w3.org/Graphics/SVG/1.1/DTD/svg11.dtd"><svg class="icon" width="200px" height="200.00px" viewBox="0 0 1024 1024" version="1.1" xmlns="http://www.w3.org/2000/svg"><path d="M201.823 200.056c-1.761-0.44-3.343-0.711-4.762-0.775-0.474-0.021-0.929-0.02-1.367 0.007-7.597 0.436-10.059 8.091-11.368 29.516-1.097 17.944-8.171 46.931-15.725 64.413l-13.737 31.789-39.597-37.583c-30.988-29.41-41.933-35.327-50.323-27.214s-1.332 19.586 32.453 52.756l43.172 42.387-24.309 33.924c-13.37 18.658-31.962 40.618-41.314 48.805-13.121 11.481-14.699 17.57-6.908 26.648 8.48 9.881 12.75 9.441 26.668-2.739 30.968-27.102 80.817-108.016 101.566-164.854 24.902-68.22 26.257-91.897 5.551-97.08zM949.765 391.995c-65.002-10.052-106.188-86.707-76.994-143.301 17.623-34.163 17.683-33.427-2.668-33.427-18.805 0-36.3 37.94-36.3 78.718 0 36.318 31.99 90.829 64.581 110.045 33.308 19.64 86.005 22.75 86.005 5.075 0-7.043-13.875-13.901-34.624-17.11z" fill="#E94A17" /><path d="M361.535 821.689c-72.116-18.795-120.559-44.055-135.187-70.486-9.462-17.1-9.792-17.051-20.026 2.904-7.952 15.506-18.713 20.818-45.632 22.521-50.113 3.174-79.998-14.047-77.661-44.75 1.17-15.367-6.191-33.611-19.931-49.402-11.981-13.771-21.785-28.135-21.785-31.916 0-8.266 86.546-72.002 108.512-79.914 25.494-9.184 17.765-22.924-22.214-39.496C2.017 479.087-29.698 321.001 68.28 235.401c44.833-39.169 67.933-47.791 128.05-47.791 54.281 0 88.988 10.619 116.679 35.701l19.24 17.427 51.625-19.353c69.329-25.991 189.125-27.068 259.791-2.337l48.719 17.052 31.819-20.206c70.56-44.805 171.397-33.522 233.021 26.072 91.551 88.535 67.916 229.677-47.943 286.295-44.825 21.904-53.123 33.701-29.399 41.795 28.158 9.607 109.249 71.611 109.249 83.537 0 6.279-8.718 22.133-19.372 35.232-10.654 13.098-19.624 35.521-19.932 49.824-0.474 22.139-4.983 27.125-30.269 33.5-48.902 12.32-84.988 5.359-88.275-17.025-1.557-10.6-3.884-19.273-5.169-19.273-1.287 0-19.678 15.479-40.87 34.4-53.434 47.703-104.469 61.375-243.447 65.223-94.365 2.612-126.91 0.124-180.262-13.785zM694.6 809.1l46.505-13.949V531.584l-84.148-56.344c-46.281-30.988-86.658-56.342-89.726-56.342s-2.828 26.983 0.532 59.964c5.459 53.583 4.466 59.964-9.343 59.964-22.678 0-92.943-74.811-118.492-126.154-12.18-24.478-24.275-44.655-26.879-44.838s-12.058 11.66-21.012 26.316c-8.954 14.658-33.73 47.369-55.059 72.692l-38.78 46.042v281.028l55.363 13.611c30.45 7.486 63.334 15.426 73.08 17.641 37.698 8.58 222.796-2.52 267.956-16.064h0.003zM357.253 678.742c-13.268-12.83-3.057-71.387 12.446-71.387 13.703 0 27.559 35.422 22.094 56.48-5.119 19.726-22.016 27.017-34.54 14.907z m283.459 0c-8.537-8.256-7.003-47.879 2.414-62.268 6.669-10.193 10.438-10.381 22.008-1.094 14.557 11.682 17.76 32.404 8.586 55.521-5.526 13.925-22.537 17.968-33.008 7.841z m-360.23-23.984v-123.92l-30.224 17.246c-18.766 10.707-32.325 13.955-35.767 8.57-6.061-9.482 29.006-82.148 36.259-75.135 2.456 2.374-2.103 16.598-10.129 31.607-8.026 15.01-12.532 29.285-10.012 31.721 9.384 9.076 99.973-83.732 138.455-141.844 21.924-33.107 41.995-60.423 44.603-60.699 2.609-0.276 17.463 24.441 33.01 54.93 29.373 57.602 84.922 124.459 103.409 124.459 8.011 0 8.782-15.165 3.106-61.11-4.151-33.61-5.743-62.854-3.54-64.985 2.204-2.132 47.18 24.846 99.943 59.947 109.017 72.521 135.8 87.447 135.8 75.676 0-4.518-10.846-20.678-24.104-35.914-13.451-15.46-18.345-25.867-11.072-23.555 13.925 4.433 52.893 55.516 52.893 69.34 0 4.564-9.967 6.455-22.146 4.205l-22.145-4.096v114.457c0 62.951 3.513 114.457 7.807 114.457 14.502 0 56.39-61.438 69.219-101.523 19.399-60.619 18.34-210.227-1.828-258.26-38.836-92.491-112.24-156.356-211.91-184.377-75.935-21.347-187.918-14.736-254.975 15.052-66.688 29.625-133.687 91.358-163.998 151.11-22.424 44.203-24.439 56.361-24.313 146.709 0.124 88.633 2.512 103.447 23.81 147.717 19.443 40.408 61.389 92.141 74.716 92.141 1.722 0 3.133-55.766 3.133-123.926z m-90.509 81.094c1.375-16.492-4.946-58.125-14.046-92.521-19.358-73.166-24.396-71.252-59.39 22.561-27.589 73.969-26.15 89.389 9.036 96.871 49.984 10.626 61.677 5.741 64.4-26.911z m749.416 16.986c10.226-9.527-37.158-141.355-57.07-158.781-14.073-12.316-15.926-9.422-26.035 40.709-27.139 134.568-25.838 139.699 33.296 131.322 23.086-3.272 45.498-9.233 49.809-13.25z m-832.498-99.82c7.751-22.002 12.426-41.613 10.387-43.586-5.614-5.428-58.249 34.182-58.249 43.834 0 7.402 25.67 39.754 31.543 39.754 1.224 0 8.567-18 16.319-40.002z m859.972 20.726c13.532-18.404 12.87-20.338-14.663-42.83-15.86-12.957-31.609-23.559-34.999-23.559s0.21 19.273 8 42.832c7.79 23.557 17.162 42.832 20.827 42.832 3.666 0.001 13.042-8.673 20.835-19.275zM167.957 473.83c7.112-66.641 41.561-129.916 99.656-183.049 54.337-49.697 54.037-60.291-2.347-83.083-85.277-34.471-200.406 13.132-233.142 96.4-10.853 27.605-10.992 90.281-0.262 117.575 18.228 46.36 103.512 116.911 125.468 103.79 3.005-1.797 7.788-25.031 10.627-51.633z m747.067 39.996c37.44-22.078 70.367-65.855 82.378-109.521 38.178-138.78-137.657-257.443-266.329-179.734-23.856 14.408-20.558 24.562 15.746 48.476 60.599 39.917 118.299 153.717 118.299 233.314 0 28.157 11.82 29.924 49.906 7.465z" fill="#333333" /><path d="M267.331 773.391c-12.202-8.98-33.786-35.281-49.994-60.918-9.179-14.516-22.968-43.121-27.835-57.74-8.789-26.402-10.486-49.115-9.743-130.361 0.606-66.341 1.31-74.22 8.565-96.113 8.412-25.384 26.724-57.872 46.719-82.89 11.732-14.68 41.08-43.57 57.063-56.174 50.513-39.834 91.023-58.136 150.668-68.067 27.755-4.622 44.467-5.875 78.155-5.861 43.074 0.018 71.397 3.543 103.554 12.888 80.251 23.321 143.146 70.044 185.284 137.646 8.685 13.93 22.23 41.359 25.657 51.952 8.817 27.253 12.979 66.747 12.973 123.108-0.009 59.91-4.445 100.291-14.308 130.23-9.361 28.422-38.653 76.182-56.45 92.047-7.39 6.584-10.508 7.895-12.008 5.041-1.588-3.018-3.482-19.84-4.759-42.217-0.977-17.127-1.798-183.299-0.906-183.287 0.16 0.002 5.695 1.053 12.299 2.334 13.555 2.631 23.248 2.975 27.631 0.977 4.154-1.893 3.928-7.328-0.688-16.482-10.271-20.37-37.669-53.286-47.447-57.005-10.285-3.91-6.151 6.242 10.748 26.393 10.757 12.827 21.682 29.335 21.682 32.767 0 9.98-22.051-2.301-123.682-68.89-69.801-45.732-100.795-64.686-109.099-66.711l-3.375-0.822 0.641 20.307c0.352 11.168 2.03 32.127 3.734 46.574 3.892 33.023 4.381 51.942 1.459 56.401-1.271 1.943-3.109 3.139-4.814 3.139-7.575 0-30.314-20.568-50.034-45.257-22.736-28.466-35.521-48.158-55.149-84.951-14.689-27.53-25.706-45.754-28.822-47.679-1.505-0.931-2.575-0.678-4.509 1.065-3.875 3.495-16.656 20.896-33.84 46.066-30.563 44.77-52.004 70.741-90.899 110.104-21.782 22.046-35.549 34.392-45 40.358-7.395 4.666-9.987 4.748-9.987 0.314 0-4.805 1.656-9.203 10.707-28.447 11.527-24.514 13.459-36.298 5.044-30.784-9.588 6.282-33.262 56.376-33.262 70.38 0 5.854 1.616 7.355 7.915 7.355 7.127 0 17.697-4.479 38.956-16.512 10.048-5.686 18.659-10.338 19.136-10.338 1 0-0.275 219.609-1.363 234.951-0.504 7.076-1.18 10.217-2.203 10.217-0.813-0.001-4.599-2.298-8.414-5.108z" fill="#F4C32D" /><path d="M944.048 690.559c-6.77-7.537-21.19-45.668-25.908-68.51-2.221-10.756-2.263-13.506-0.203-13.506 3.659 0 32.527 20.957 46.614 33.842 11.728 10.725 12.554 14.797 5.252 25.857-4.953 7.5-20.733 24.357-22.8 24.357-0.616 0.001-1.944-0.917-2.955-2.04zM851.867 764.646c-14.885-7.018-14.147-27.561 4.279-119.229 9.265-46.092 12.38-56.037 17.543-56.037 1.255 0 5.153 2.869 8.659 6.377 5.197 5.195 8.107 9.896 15.717 25.391 20.307 41.35 39.119 97.018 40.652 120.285l0.671 10.207-4.327 1.811c-12.984 5.424-45.445 11.764-65.743 12.838-10.954 0.58-13.183 0.373-17.451-1.643zM136.735 764.254c-15.862-3.5-22.833-5.688-28.418-8.928-13.245-7.678-12.668-25.619 2.208-68.676 15.036-43.52 30.935-80.943 37.841-89.08 2.159-2.543 4.113-3.734 5.744-3.502 5.384 0.77 12.946 20.904 22.272 59.309 7.424 30.576 9.99 46.846 10.771 68.297 0.979 26.904-1.539 36.24-11.312 41.955-5.93 3.469-24.841 3.767-39.106 0.625zM82.611 684.137c-11.36-12.01-22.024-27.322-22.024-31.627 0-2.324 15.565-18.018 25.146-25.359 8.745-6.699 25.759-16.855 28.236-16.855 4.69 0-2.633 28.201-16.293 62.75-3.871 9.791-7.417 17.803-7.877 17.803-0.461-0.001-3.696-3.021-7.188-6.712z" fill="#0D6E7C" /><path d="M644.216 718.534a37.36 25.101 0 1 0 74.72 0 37.36 25.101 0 1 0-74.72 0Z" fill="#EE7C7C" /><path d="M332.405 742.893c-19.046-4.137-31.05-17.174-27.31-29.658 1.802-6.014 11.054-14.326 19.777-17.771 8.903-3.512 30.308-3.867 39.52-0.652 16.973 5.924 25.717 18.063 21.353 29.639-3.1 8.217-14.271 15.668-27.795 18.533-9.466 2.004-16.004 1.985-25.545-0.091z" fill="#EE7C7C" /></svg>